<?xml version="1.0" encoding="iso-8859-1"?>
<!-- Generator: Adobe Illustrator 19.0.0, SVG Export Plug-In . SVG Version: 6.00 Build 0)  -->
<svg xmlns="http://www.w3.org/2000/svg" xmlns:xlink="http://www.w3.org/1999/xlink" version="1.1" id="Capa_1" x="0px" y="0px" viewBox="0 0 512 512" style="enable-background:new 0 0 512 512;" xml:space="preserve" width="512px" height="512px">
<g>
	<g>
		<path d="M448,64h-48V16c0-8.832-7.168-16-16-16H96C69.536,0,48,21.536,48,48v400c0,35.296,28.704,64,64,64h336    c8.832,0,16-7.168,16-16V80C464,71.168,456.832,64,448,64z M96,32h272v32H96c-8.8,0-16-7.2-16-16S87.2,32,96,32z M432,480H112    c-17.664,0-32-14.336-32-32V93.056C85.024,94.848,90.368,96,96,96h336V480z" fill="#D80027"/>
	</g>
</g>
<!-- <g>
	<g>
		<path d="M275.072,129.216c-46.976-5.888-93.952,11.104-125.6,45.92c-32.16,35.328-44.448,82.848-33.696,130.304    c11.936,52.768,53.76,94.656,106.528,106.72c11.328,2.592,22.624,3.872,33.824,3.872c22.112,0,43.712-5.024,63.712-14.944    c7.936-3.936,11.168-13.536,7.264-21.44c-3.936-7.968-13.6-11.168-21.44-7.264c-23.456,11.616-49.792,14.624-76.224,8.576    c-40.224-9.184-73.344-42.368-82.464-82.592c-8.384-37.152,1.152-74.208,26.144-101.696s60.896-40.512,97.856-35.712    C326.272,168.128,368,218.4,368,277.952V288c0,17.664-14.336,32-32,32c-8.8,0-16-7.2-16-16v-80c0-8.832-7.168-16-16-16    c-6.56,0-12.16,3.968-14.624,9.6C279.84,211.584,268.64,208,256,208c-37.696,0-64,29.6-64,72c0,42.4,26.304,72,64,72    c17.408,0,32.192-6.528,43.264-17.472C308.064,345.12,321.184,352,336,352c35.296,0,64-28.704,64-64v-10.048    C400,202.368,346.304,138.432,275.072,129.216z M256,320c-19.744,0-32-15.328-32-40s12.256-40,32-40s32,15.328,32,40    S275.744,320,256,320z" fill="#D80027"/>
	</g>
</g> -->
<g>
</g>
<g>
</g>
<g>
</g>
<g>
</g>
<g>
</g>
<g>
</g>
<g>
</g>
<g>
</g>
<g>
</g>
<g>
</g>
<g>
</g>
<g>
</g>
<g>
</g>
<g>
</g>
<g>
</g>
</svg>
